<svg xmlns="http://www.w3.org/2000/svg" fill="none" viewBox="0 0 120 120">
  <path fill="#FF2147" d="M60 100a40 40 0 1 0 0-80 40 40 0 0 0 0 80Z"/>
  <path fill="#fff" d="m68.87 60 11.98-11.99a3.48 3.48 0 0 0 0-4.92l-3.94-3.94a3.48 3.48 0 0 0-4.92 0L60 51.13 48.01 39.15a3.49 3.49 0 0 0-4.92 0l-3.94 3.94a3.48 3.48 0 0 0 0 4.92L51.13 60 39.15 71.99a3.48 3.48 0 0 0 0 4.92l3.94 3.94a3.48 3.48 0 0 0 4.92 0L60 68.87l11.99 11.98a3.48 3.48 0 0 0 4.92 0l3.94-3.94a3.48 3.48 0 0 0 0-4.92L68.87 60Z"/>
</svg>
