<svg width="126" height="44" viewBox="0 0 126 44" fill="none" xmlns="http://www.w3.org/2000/svg">
<path d="M43.0739 3.34554V0.363647H58.7408V3.34554H52.6715V20H49.1431V3.34554H43.0739Z" fill="white"/>
<path d="M60.0783 20V5.27274H63.4437V7.72728H63.5971C63.8656 6.87714 64.3258 6.22196 64.9778 5.76173C65.6362 5.29511 66.3873 5.0618 67.231 5.0618C67.4228 5.0618 67.6369 5.07139 67.8734 5.09056C68.1163 5.10335 68.3176 5.12572 68.4774 5.15768V8.35051C68.3304 8.29937 68.0971 8.25463 67.7775 8.21628C67.4643 8.17153 67.1607 8.14916 66.8667 8.14916C66.2338 8.14916 65.665 8.28659 65.16 8.56145C64.6614 8.82991 64.2683 9.20385 63.9806 9.68325C63.693 10.1627 63.5492 10.7156 63.5492 11.342V20H60.0783Z" fill="white"/>
<path d="M80.1701 13.8061V5.27274H83.641V20H80.2756V17.3825H80.1222C79.7898 18.207 79.2433 18.8814 78.4826 19.4056C77.7283 19.9297 76.7983 20.1918 75.6925 20.1918C74.7273 20.1918 73.8739 19.9776 73.1325 19.5494C72.3974 19.1147 71.8221 18.4851 71.4066 17.6605C70.9911 16.8296 70.7834 15.826 70.7834 14.6499V5.27274H74.2543V14.1129C74.2543 15.0462 74.5099 15.7877 75.0213 16.3374C75.5327 16.8871 76.2038 17.1619 77.0348 17.1619C77.5462 17.1619 78.0415 17.0373 78.521 16.788C79.0004 16.5387 79.3935 16.168 79.7003 15.6758C80.0135 15.1772 80.1701 14.554 80.1701 13.8061Z" fill="white"/>
<path d="M98.8501 9.16549L95.686 9.51066C95.5965 9.19106 95.4399 8.89064 95.2162 8.60939C94.9988 8.32814 94.7048 8.10122 94.3341 7.92863C93.9633 7.75605 93.5095 7.66976 92.9726 7.66976C92.2503 7.66976 91.643 7.82636 91.1508 8.13957C90.665 8.45278 90.4253 8.85868 90.4317 9.35726C90.4253 9.78552 90.5819 10.1339 90.9016 10.4024C91.2275 10.6708 91.7645 10.8913 92.5123 11.0639L95.0244 11.6009C96.4179 11.9013 97.4534 12.3775 98.131 13.0295C98.8149 13.6815 99.1601 14.5348 99.1665 15.5895C99.1601 16.5163 98.8884 17.3345 98.3515 18.044C97.8209 18.7472 97.0826 19.2969 96.1366 19.6932C95.1906 20.0895 94.104 20.2877 92.8767 20.2877C91.0741 20.2877 89.6231 19.9105 88.5237 19.1563C87.4243 18.3956 86.7691 17.3377 86.5582 15.9826L89.9427 15.6566C90.0961 16.3214 90.4221 16.8232 90.9207 17.1619C91.4193 17.5007 92.0681 17.6701 92.8671 17.6701C93.6917 17.6701 94.3532 17.5007 94.8518 17.1619C95.3568 16.8232 95.6093 16.4045 95.6093 15.9059C95.6093 15.484 95.4463 15.1357 95.1203 14.8608C94.8007 14.5859 94.3021 14.375 93.6246 14.228L91.1125 13.7007C89.6998 13.4066 88.6547 12.9112 87.9772 12.2145C87.2996 11.5114 86.964 10.6229 86.9704 9.54902C86.964 8.64135 87.2101 7.85513 87.7087 7.19035C88.2137 6.51919 88.9136 6.00143 89.8085 5.63708C90.7098 5.26635 91.7485 5.08098 92.9246 5.08098C94.6505 5.08098 96.0088 5.44852 96.9996 6.18361C97.9967 6.91869 98.6135 7.91265 98.8501 9.16549Z" fill="white"/>
<path d="M109.383 5.27274V7.9574H100.916V5.27274H109.383ZM103.006 1.74433H106.477V15.5703C106.477 16.0369 106.548 16.3949 106.688 16.6442C106.835 16.8871 107.027 17.0533 107.264 17.1428C107.5 17.2323 107.762 17.277 108.05 17.277C108.267 17.277 108.465 17.261 108.644 17.2291C108.83 17.1971 108.97 17.1683 109.066 17.1428L109.651 19.8562C109.466 19.9201 109.2 19.9904 108.855 20.0671C108.516 20.1438 108.101 20.1886 107.609 20.2014C106.739 20.2269 105.956 20.0959 105.26 19.8083C104.563 19.5142 104.01 19.0604 103.601 18.4467C103.198 17.8331 103 17.0661 103.006 16.1456V1.74433Z" fill="white"/>
<path d="M114.443 25.5227C113.97 25.5227 113.532 25.4844 113.129 25.4077C112.733 25.3374 112.416 25.2543 112.18 25.1584L112.985 22.4546C113.49 22.6016 113.941 22.6719 114.337 22.6655C114.733 22.6591 115.082 22.5345 115.382 22.2916C115.689 22.0551 115.948 21.6587 116.159 21.1026L116.456 20.3068L111.116 5.27274H114.797L118.192 16.3949H118.345L121.749 5.27274H125.44L119.544 21.7834C119.269 22.5632 118.904 23.2312 118.45 23.7873C117.997 24.3498 117.441 24.7781 116.782 25.0721C116.13 25.3725 115.35 25.5227 114.443 25.5227Z" fill="white"/>
<path d="M43.5781 39V23H49.5781C50.8073 23 51.8385 23.2292 52.6719 23.6875C53.5104 24.1458 54.1432 24.7761 54.5703 25.5781C55.0026 26.375 55.2188 27.2813 55.2188 28.2969C55.2188 29.3229 55.0026 30.2344 54.5703 31.0313C54.138 31.8281 53.5 32.4557 52.6562 32.9141C51.8125 33.3672 50.7734 33.5938 49.5391 33.5938H45.5625V31.2109H49.1484C49.8672 31.2109 50.4557 31.0859 50.9141 30.8359C51.3724 30.5859 51.7109 30.2422 51.9297 29.8047C52.1536 29.3672 52.2656 28.8646 52.2656 28.2969C52.2656 27.7292 52.1536 27.2292 51.9297 26.7969C51.7109 26.3646 51.3698 26.0287 50.9062 25.7891C50.4479 25.5443 49.8568 25.4219 49.1328 25.4219H46.4766V39H43.5781Z" fill="white"/>
<path d="M60.8496 39.2422C60.0892 39.2422 59.4043 39.1068 58.7949 38.8359C58.1908 38.5599 57.7116 38.1537 57.3574 37.6172C57.0085 37.0807 56.834 36.4193 56.834 35.6328C56.834 34.9557 56.959 34.3958 57.209 33.9531C57.459 33.5104 57.8001 33.1563 58.2324 32.8906C58.6647 32.625 59.1517 32.4245 59.6934 32.2891C60.2402 32.1484 60.8053 32.0469 61.3887 31.9844C62.0918 31.9115 62.6621 31.8464 63.0996 31.7891C63.5371 31.7266 63.8548 31.6328 64.0527 31.5078C64.2559 31.3776 64.3574 31.1771 64.3574 30.9063V30.8594C64.3574 30.2708 64.1829 29.8151 63.834 29.4922C63.485 29.1693 62.9824 29.0078 62.3262 29.0078C61.6335 29.0078 61.084 29.1589 60.6777 29.4609C60.2767 29.763 60.0059 30.1198 59.8652 30.5313L57.2246 30.1563C57.4329 29.4271 57.7767 28.8177 58.2559 28.3281C58.735 27.8333 59.321 27.4636 60.0137 27.2188C60.7064 26.9688 61.472 26.8438 62.3105 26.8438C62.8887 26.8438 63.4642 26.9115 64.0371 27.0469C64.61 27.1823 65.1335 27.4063 65.6074 27.7188C66.0814 28.0261 66.4616 28.4453 66.748 28.9766C67.0397 29.5078 67.1855 30.1719 67.1855 30.9688V39H64.4668V37.3516H64.373C64.2012 37.6849 63.959 37.9974 63.6465 38.2891C63.3392 38.5755 62.9512 38.8073 62.4824 38.9844C62.0189 39.1563 61.4746 39.2422 60.8496 39.2422ZM61.584 37.1641C62.1517 37.1641 62.6439 37.0521 63.0605 36.8281C63.4772 36.599 63.7975 36.2969 64.0215 35.9219C64.2507 35.5469 64.3652 35.138 64.3652 34.6953V33.2813C64.2767 33.3542 64.1257 33.4219 63.9121 33.4844C63.7038 33.5469 63.4694 33.6016 63.209 33.6484C62.9486 33.6953 62.6908 33.737 62.4355 33.7734C62.1803 33.8099 61.959 33.8412 61.7715 33.8672C61.3496 33.9245 60.972 34.0182 60.6387 34.1484C60.3053 34.2787 60.0423 34.4609 59.8496 34.6953C59.6569 34.9245 59.5605 35.2214 59.5605 35.5859C59.5605 36.1068 59.7507 36.5 60.1309 36.7656C60.5111 37.0313 60.9954 37.1641 61.584 37.1641Z" fill="white"/>
<path d="M71.3574 43.5C70.972 43.5 70.6152 43.4688 70.2871 43.4063C69.9642 43.349 69.7064 43.2813 69.5137 43.2031L70.1699 41C70.5814 41.1198 70.9486 41.1771 71.2715 41.1719C71.5944 41.1667 71.8783 41.0651 72.123 40.8672C72.373 40.6745 72.584 40.3516 72.7559 39.8984L72.998 39.25L68.6465 27H71.6465L74.4121 36.0625H74.5371L77.3105 27H80.3184L75.5137 40.4531C75.2897 41.0886 74.9928 41.6328 74.623 42.0859C74.2533 42.5443 73.8001 42.8932 73.2637 43.1328C72.7324 43.3776 72.097 43.5 71.3574 43.5Z" fill="white"/>
<path d="M36.5 38.7813V2.50001H10.5C3.3 3.70001 0.5 9.87935 0 12.819V38.7813H36.5Z" fill="#B2EE00"/>
<path d="M29.5 22V18H19C14.6 18 13.8333 21 14 22.5V32H29.5V28H18V23.5C18 22.7 18.5 22 19.5 22H29.5Z" fill="#00240D"/>
<path d="M29.5 14V9.50001H13C7 10 6.66667 14.6667 6.5 16.5V32H11V17C11 17 10.5 14 14 14H29.5Z" fill="#00240D"/>
</svg>
