<svg xmlns="http://www.w3.org/2000/svg" fill="none" viewBox="0 0 42 32">
  <path fill="#fff" d="M7.47 31.93V29.8c0-.8-.5-1.34-1.35-1.34-.42 0-.88.14-1.2.6-.25-.38-.6-.6-1.13-.6a1.15 1.15 0 0 0-1 .5v-.43h-.74v3.4h.75v-1.88c0-.6.31-.89.8-.89.5 0 .75.32.75.9v1.87h.74v-1.88c0-.6.36-.89.81-.89.5 0 .75.32.75.9v1.87h.82Zm11-3.4h-1.2V27.5h-.74v1.03h-.67v.67h.67v1.56c0 .78.32 1.24 1.17 1.24a2 2 0 0 0 .92-.25l-.22-.64c-.19.12-.41.18-.64.18-.35 0-.49-.22-.49-.57V29.2h1.2v-.67Zm6.3-.07a1 1 0 0 0-.88.5v-.43h-.74v3.4h.74V30c0-.56.25-.89.71-.89.14 0 .32.04.46.07l.22-.7c-.15-.03-.36-.03-.5-.03Zm-9.51.35a2.44 2.44 0 0 0-1.38-.35c-.85 0-1.42.42-1.42 1.1 0 .56.43.88 1.17.98l.35.04c.39.07.6.18.6.35 0 .25-.28.43-.77.43-.4 0-.8-.12-1.14-.36l-.35.57c.38.28.92.43 1.45.43.99 0 1.56-.47 1.56-1.1 0-.6-.46-.92-1.17-1.03l-.35-.04c-.32-.03-.57-.1-.57-.31 0-.25.25-.4.64-.4.43 0 .85.19 1.06.3l.32-.6ZM35 28.46a1 1 0 0 0-.88.5v-.43h-.74v3.4h.74V30c0-.56.25-.89.7-.89.15 0 .32.04.47.07l.21-.7c-.14-.03-.35-.03-.5-.03Zm-9.48 1.77c0 1.03.71 1.77 1.8 1.77.5 0 .86-.1 1.21-.39l-.35-.6c-.29.21-.57.32-.9.32-.6 0-1.02-.43-1.02-1.1 0-.64.43-1.06 1.03-1.1.32 0 .6.11.89.32l.35-.6a1.7 1.7 0 0 0-1.2-.39c-1.1 0-1.8.74-1.8 1.77m6.86 0v-1.7h-.75v.43c-.24-.32-.6-.5-1.06-.5-.96 0-1.7.74-1.7 1.77s.74 1.77 1.7 1.77c.5 0 .85-.18 1.06-.5v.43h.75v-1.7Zm-2.73 0c0-.6.39-1.1 1.03-1.1.6 0 1.03.46 1.03 1.1 0 .6-.43 1.1-1.03 1.1a1.05 1.05 0 0 1-1.03-1.1Zm-8.88-1.77c-1 0-1.7.7-1.7 1.77 0 1.06.7 1.76 1.74 1.76.5 0 .99-.14 1.38-.46l-.36-.53c-.28.22-.63.35-.99.36-.46 0-.92-.22-1.02-.82h2.5v-.28c.04-1.1-.6-1.8-1.55-1.8m0 .63c.46 0 .78.29.85.81h-1.77c.07-.45.39-.8.92-.8Zm18.44 1.14v-3.05h-.74v1.77c-.25-.32-.6-.5-1.07-.5-.95 0-1.7.75-1.7 1.78a1.7 1.7 0 0 0 1.7 1.77c.5 0 .85-.18 1.07-.5v.43h.74v-1.7Zm-2.73 0c0-.6.4-1.1 1.03-1.1.6 0 1.03.46 1.03 1.1 0 .6-.43 1.1-1.03 1.1a1.05 1.05 0 0 1-1.02-1.1m-24.85 0v-1.7h-.74v.43c-.25-.32-.6-.5-1.07-.5-.95 0-1.7.74-1.7 1.77S8.9 32 9.84 32c.5 0 .85-.18 1.07-.5v.43h.74v-1.7Zm-2.76 0c0-.6.39-1.1 1.03-1.1.6 0 1.02.46 1.02 1.1 0 .6-.42 1.1-1.02 1.1a1.05 1.05 0 0 1-1.03-1.1"/>
  <path fill="#FF5A00" d="M26.16 2.73H15.01v20.03h11.15V2.73Z"/>
  <path fill="#EB001B" d="M15.75 12.74A12.77 12.77 0 0 1 20.6 2.72 12.67 12.67 0 0 0 7.86.97 12.73 12.73 0 1 0 20.6 22.76a12.72 12.72 0 0 1-4.85-10.02Z"/>
  <path fill="#F79E1B" d="M41.2 12.74a12.73 12.73 0 0 1-20.6 10.02 12.67 12.67 0 0 0 4.85-10.02A12.77 12.77 0 0 0 20.6 2.73C22.84.96 25.6 0 28.45 0 35.5 0 41.2 5.74 41.2 12.74Z"/>
</svg>
