<svg xmlns="http://www.w3.org/2000/svg" fill="none" viewBox="0 0 32 32">
  <path fill="#07F" d="M2 15.44C2 9.1 2 5.94 3.97 3.97 5.94 2 9.1 2 15.44 2h1.12c6.34 0 9.5 0 11.47 1.97C30 5.94 30 9.1 30 15.44v1.12c0 6.34 0 9.5-1.97 11.47C26.06 30 22.9 30 16.56 30h-1.12c-6.34 0-9.5 0-11.47-1.97C2 26.06 2 22.9 2 16.56v-1.12Z"/>
  <path fill="#fff" d="M16.9 22.17c-6.38 0-10.02-4.37-10.17-11.65h3.2c.1 5.34 2.46 7.6 4.32 8.07v-8.07h3.01v4.6c1.85-.2 3.78-2.3 4.44-4.6h3a8.9 8.9 0 0 1-4.09 5.8c1.5.7 3.89 2.54 4.8 5.85h-3.32a5.73 5.73 0 0 0-4.83-4.16v4.16h-.36Z"/>
</svg>
