
<svg xmlns="http://www.w3.org/2000/svg" fill="none" viewBox="0 0 48 48">
  <path fill="#B2EE00" d="M33.38 7.5A11.5 11.5 0 0 0 24 11.98a11.52 11.52 0 0 0-9.38-4.48A11.64 11.64 0 0 0 3 19.13C3 32.24 22.46 42.86 23.29 43.3a1.5 1.5 0 0 0 1.42 0C25.54 42.87 45 32.25 45 19.12A11.64 11.64 0 0 0 33.37 7.5ZM24 40.27C20.58 38.28 6 29.2 6 19.13a8.64 8.64 0 0 1 8.63-8.62c3.64 0 6.7 1.94 7.98 5.06a1.5 1.5 0 0 0 2.78 0c1.28-3.12 4.34-5.06 7.98-5.06A8.64 8.64 0 0 1 42 19.13c0 10.05-14.58 19.15-18 21.14Z"/>
</svg>