<svg xmlns="http://www.w3.org/2000/svg" fill="none" viewBox="0 0 12 12">
  <path fill="#7F7F90" d="M6 8.73a.55.55 0 1 0 0-1.1.55.55 0 0 0 0 1.1ZM5.45 7.1h1.1c0-.44.06-.52.51-.75.78-.39 1.12-.79 1.12-1.71 0-1.2-.93-1.91-2.18-1.91-1.2 0-2.18.97-2.18 2.18H4.9c0-.6.49-1.1 1.09-1.1.7 0 1.1.31 1.1.83 0 .43-.08.51-.53.74-.77.39-1.12.78-1.12 1.71Z"/>
  <path fill="#7F7F90" fill-rule="evenodd" d="M0 6a6 6 0 1 0 12 0A6 6 0 0 0 0 6Zm10.9 0a4.9 4.9 0 1 1-9.8 0 4.9 4.9 0 0 1 9.8 0Z" clip-rule="evenodd"/>
</svg>