<svg xmlns="http://www.w3.org/2000/svg" fill="none" viewBox="0 0 24 24">
  <path fill="#000" d="M5.28 16.06c-1.34-.37-1.57-1.15-.96-1.6.46-.3.96-.53 1.48-.71l.06-.02 3.96-1.39v1.6l-2.84 1.02c-.5.19-.59.43-.17.57.55.13 1.14.1 1.68-.1h-.02l1.38-.47v1.43l-.28.05a9.03 9.03 0 0 1-4.34-.35l.06.02-.01-.05Zm8.38.17 4.46-1.58c.5-.17.59-.43.17-.56a2.99 2.99 0 0 0-1.69.09h.03l-2.99 1.03v-1.65l.17-.06c.66-.2 1.34-.35 2.02-.42h.05a9.03 9.03 0 0 1 3.9.47l-.05-.02c1.3.42 1.45 1.02 1.12 1.44-.32.3-.7.55-1.13.7h-.02l-6.06 2.16v-1.59l.02-.01ZM10.36 5v12.13l2.78.87V7.83c0-.48.21-.8.56-.69.45.13.54.57.54 1.04v4.07c1.73.82 3.09 0 3.09-2.18 0-2.24-.8-3.23-3.15-4.04-1.17-.4-2.38-.73-3.6-1L10.36 5Z"/>
</svg>