<svg xmlns="http://www.w3.org/2000/svg" fill="none" viewBox="0 0 24 24">
  <path fill="#000" d="M20.93 5H3.07C2.47 5 2 5.5 2 6.1v10.8c0 .6.48 1.1 1.07 1.1h17.86c.6 0 1.07-.5 1.07-1.1V6.1c0-.6-.48-1.1-1.07-1.1ZM5.97 14.2 4.71 9.51a5.85 5.85 0 0 0-1.5-.6l.02-.1h2.3c.3 0 .55.11.64.45l.5 2.48.15.75 1.4-3.68h1.5l-2.24 5.4h-1.5Zm4.86 0H9.4l.9-5.4h1.42l-.9 5.4Zm2.47.09a4.2 4.2 0 0 1-1.58-.29l.2-1.2.18.08c.47.2.77.28 1.34.28.4 0 .85-.17.85-.53 0-.23-.18-.4-.74-.67-.54-.26-1.25-.69-1.24-1.47 0-1.05 1-1.78 2.4-1.78.55 0 1 .12 1.28.23l-.2 1.17-.12-.06c-.34-.15-.7-.22-1.07-.21-.56 0-.81.24-.81.46 0 .26.3.42.8.67.82.39 1.2.86 1.19 1.47-.01 1.12-.98 1.85-2.48 1.85Zm6.17-.08-.18-.8-1.82-.01-.3.81h-1.5l2.12-4.95c.15-.35.4-.45.75-.45h1.1l1.15 5.4h-1.32Z"/>
  <path fill="#000" d="m17.88 12.3.57-1.52.19-.51.1.46.32 1.56h-1.18Z"/>
</svg>