<svg width="217" height="150" viewBox="0 0 217 150" fill="none" xmlns="http://www.w3.org/2000/svg">
<path d="M104.258 46.9046C141.949 81.0936 159.293 123.373 142.997 141.338C126.701 159.302 82.936 146.15 45.2456 111.961C7.55511 77.7721 -9.78857 35.4931 6.50737 17.5282C22.8033 -0.436697 66.5679 12.7156 104.258 46.9046Z" fill="url(#paint0_linear_725_2857)"/>
<path d="M128.723 97.8524C123.789 99.2736 119.094 99.4778 114.64 98.4652C110.185 97.4526 106.145 95.5637 102.519 92.7984C98.8936 90.0332 95.8109 86.8176 93.2715 83.1515C90.7777 79.4001 88.9362 75.5587 87.7469 71.6273C86.4783 67.4338 85.8977 63.0321 86.0051 58.4223C86.1124 53.8125 86.9612 49.4076 88.5515 45.2074C90.1874 40.922 92.5655 37.1987 95.6859 34.0376C98.7864 30.8109 102.663 28.494 107.315 27.0866C112.36 25.5603 117.087 25.3461 121.496 26.4441C125.971 27.5222 130.021 29.4439 133.646 32.2091C137.272 34.9743 140.332 38.2327 142.826 41.984C145.385 45.7156 147.24 49.4816 148.389 53.282C149.678 57.541 150.268 61.9754 150.161 66.5852C150.034 71.1295 149.142 75.5116 147.486 79.7316C145.896 83.9317 143.551 87.6451 140.45 90.8717C137.33 94.0328 133.421 96.3597 128.723 97.8524ZM101.409 67.4944C102.307 70.2266 103.5 72.8696 104.987 75.4233C106.521 77.8918 108.29 80.0744 110.294 81.9713C112.364 83.8484 114.665 85.1906 117.198 85.9978C119.711 86.7395 122.343 86.6941 125.095 85.8615C128.044 84.9695 130.339 83.4529 131.98 81.3115C133.62 79.1702 134.739 76.7218 135.336 73.9665C135.999 71.1914 136.251 68.3615 136.094 65.4768C135.936 62.5921 135.481 59.9048 134.728 57.4149C133.895 54.6629 132.712 52.0526 131.179 49.5842C129.691 47.0304 127.879 44.8249 125.744 42.9677C123.674 41.0906 121.383 39.7812 118.87 39.0395C116.402 38.2125 113.76 38.2251 110.942 39.0775C108.059 39.9496 105.797 41.4564 104.157 43.5978C102.516 45.7391 101.364 48.1973 100.702 50.9725C100.105 53.7278 99.8851 56.5478 100.043 59.4325C100.2 62.3172 100.655 65.0045 101.409 67.4944Z" fill="#B2EE00"/>
<path d="M194.884 76.7649L190.097 60.9408L160.709 69.831L157.141 58.0367L177.901 5.7331L186.943 2.99765L199.669 45.064L208.318 42.4475L211.916 54.3401L203.267 56.9566L208.054 72.7806L194.884 76.7649ZM170.38 53.9245L187.973 48.6023L181.254 26.3896L170.38 53.9245Z" fill="#B2EE00"/>
<path fill-rule="evenodd" clip-rule="evenodd" d="M73.165 83.3335L81.8145 80.7173L85.4121 92.6099L76.7627 95.2261L81.5498 111.05L68.3789 115.035L63.5918 99.2104L39.4766 106.505C36.5175 103.593 33.7041 100.638 31.0449 97.6558L30.6367 96.3062L51.3965 44.0024L60.4395 41.2671L73.165 83.3335ZM43.876 92.1938L61.4688 86.8716L54.749 64.6597L43.876 92.1938Z" fill="#B2EE00"/>
<path d="M92.8545 37.3335C96.2018 39.9286 99.5294 42.6883 102.813 45.6089C101.87 47.2413 101.166 49.029 100.702 50.9722C100.105 53.7274 99.8855 56.5475 100.043 59.4321C100.2 62.3168 100.656 65.0047 101.409 67.4946C102.307 70.2267 103.5 72.8697 104.987 75.4233C106.521 77.8917 108.29 80.0743 110.294 81.9712C112.364 83.8483 114.665 85.1903 117.198 85.9976C119.711 86.7392 122.344 86.6943 125.096 85.8618C128.044 84.9698 130.339 83.4524 131.979 81.311C132.325 80.8599 132.646 80.394 132.945 79.9155C135.523 83.8134 137.814 87.6889 139.805 91.5015C136.796 94.3431 133.102 96.4604 128.723 97.8521C123.789 99.273 119.095 99.4778 114.641 98.4653C110.186 97.4527 106.145 95.5636 102.52 92.7983C98.8938 90.0332 95.8109 86.8178 93.2715 83.1519C90.7778 79.4005 88.9364 75.5588 87.7471 71.6274C86.4785 67.434 85.8975 63.0321 86.0049 58.4224C86.1123 53.8126 86.9616 49.4076 88.5518 45.2075C89.6506 42.3289 91.0858 39.7048 92.8545 37.3335Z" fill="#B2EE00"/>
<defs>
<linearGradient id="paint0_linear_725_2857" x1="102.603" y1="45.4033" x2="37.8197" y2="103.302" gradientUnits="userSpaceOnUse">
<stop stop-color="#1F2329"/>
<stop offset="1" stop-color="#0071B9"/>
</linearGradient>
</defs>
</svg>
