<svg xmlns="http://www.w3.org/2000/svg" fill="none" viewBox="0 0 75 39">
  <path fill="#0F754E" fill-rule="evenodd" d="M15.09 0c.49 0 1.95-.13 2.56 1.96.42 1.4 1.09 3.7 2 6.9h.37l2-6.9C22.66-.15 24.23 0 24.85 0h4.82v15h-4.91V6.16h-.33L21.68 15h-3.7l-2.74-8.84h-.33V15H10V0h5.09Zm21.63 0v8.85h.4l3.32-7.28C41.1.13 42.47 0 42.47 0h4.75v15h-5.01V6.16h-.4l-3.26 7.27a2.72 2.72 0 0 1-2.1 1.57H31.7V0h5.02Zm27.84 7.13c-.7 1.98-2.9 3.4-5.33 3.4h-5.26V15H49.2V7.13h15.36Z" clip-rule="evenodd"/>
  <path fill="url(#a)" fill-rule="evenodd" d="M59.46 0h-10.5c.24 3.34 3.12 6.2 6.1 6.2h9.83A5.25 5.25 0 0 0 59.46 0Z" clip-rule="evenodd"/>
  <path fill="#FF5F00" d="M15.42 25.6H8.85v11.8h6.57V25.6Z"/>
  <path fill="#EB001B" d="M9.27 31.5c0-2.4 1.13-4.52 2.86-5.9a7.5 7.5 0 1 0 0 11.8 7.49 7.49 0 0 1-2.86-5.9Z"/>
  <path fill="#F79E1B" d="M24.27 31.5a7.5 7.5 0 0 1-12.12 5.9 7.52 7.52 0 0 0 0-11.8 7.5 7.5 0 0 1 12.12 5.9Z"/>
  <path fill="#fff" d="M48.36 38.78H44.6l2.35-14.52h3.75l-2.34 14.52Zm13.61-14.16A9.25 9.25 0 0 0 58.6 24c-3.7 0-6.32 1.98-6.34 4.8-.03 2.09 1.87 3.25 3.3 3.94 1.45.71 1.94 1.18 1.94 1.81-.01.97-1.17 1.42-2.25 1.42-1.5 0-2.3-.23-3.53-.77l-.49-.23-.53 3.26c.88.4 2.5.75 4.2.77 3.93 0 6.5-1.95 6.53-4.96.01-1.65-1-2.92-3.16-3.95-1.3-.67-2.11-1.12-2.11-1.8.01-.61.68-1.25 2.16-1.25a6.38 6.38 0 0 1 2.8.56l.34.15.5-3.13Zm4.99 9.02 1.5-4.06.49-1.4.26 1.26.87 4.2h-3.12Zm4.63-9.38h-2.9c-.9 0-1.58.27-1.97 1.2l-5.57 13.32h3.94l.78-2.17h4.83l.44 2.17h3.48l-3.03-14.52Zm-30.12 0-3.68 9.9-.4-2c-.68-2.32-2.82-4.84-5.2-6.09l3.37 12.7h3.97l5.9-14.5h-3.96Z"/>
  <path fill="#fff" d="M34.37 24.26h-6.04l-.06.3c4.71 1.2 7.83 4.1 9.12 7.6l-1.32-6.68c-.21-.92-.88-1.19-1.7-1.22Z"/>
  <defs>
    <linearGradient id="a" x1="64.99" x2="48.95" y1="3.9" y2="3.9" gradientUnits="userSpaceOnUse">
      <stop stop-color="#1F5CD7"/>
      <stop offset="1" stop-color="#02AEFF"/>
    </linearGradient>
  </defs>
</svg>
