<svg xmlns="http://www.w3.org/2000/svg" fill="none" viewBox="0 0 66 32">
  <g clip-path="url(#a)">
    <mask id="b" width="66" height="32" x="0" y="0" maskUnits="userSpaceOnUse" style="mask-type:luminance">
      <path fill="#fff" d="M66 0H0v32h66V0Z"/>
    </mask>
    <g mask="url(#b)">
      <path fill="#fff" d="M33.57 20.96a1 1 0 0 1-.35.26 1.32 1.32 0 0 1-.89.01.94.94 0 0 1-.34-.22.95.95 0 0 1-.23-.34 1.2 1.2 0 0 1 0-.86 1 1 0 0 1 .22-.34.98.98 0 0 1 .74-.3c.15-.01.3 0 .45.05.13.04.25.11.35.2l-.17.3a.8.8 0 0 0-.27-.17.93.93 0 0 0-.32-.05.66.66 0 0 0-.25.06.59.59 0 0 0-.23.14.65.65 0 0 0-.16.23.8.8 0 0 0 0 .6.71.71 0 0 0 .4.38.78.78 0 0 0 .87-.21l.18.26Zm.47.3V19.2h.36v1.53l1.18-1.53h.36v2.06h-.36v-1.53l-1.18 1.53h-.36Zm4.31-.3c-.09.11-.2.2-.34.26a1.32 1.32 0 0 1-.89.01.97.97 0 0 1-.57-.56 1.18 1.18 0 0 1 0-.86 1 1 0 0 1 .54-.57.96.96 0 0 1 .42-.08c.15 0 .3.02.45.06.13.04.25.1.35.2l-.16.3a.77.77 0 0 0-.29-.17.9.9 0 0 0-.3-.05.7.7 0 0 0-.7.73c0 .1.01.2.06.3.03.1.09.17.15.24.07.06.15.1.24.14.09.03.19.05.28.05a.81.81 0 0 0 .59-.27l.17.27Zm.19-1.76h1.87v.37h-.76v1.69h-.36v-1.7h-.75v-.36Zm3.92 1.83c-.1.1-.22.17-.36.2a1.4 1.4 0 0 1-.86 0 .94.94 0 0 1-.34-.22 1.03 1.03 0 0 1-.3-.78c0-.14.02-.29.07-.42a.98.98 0 0 1 .53-.57c.14-.06.3-.08.45-.08a.97.97 0 0 1 .68.26.93.93 0 0 1 .27.68v.25h-1.57a.58.58 0 0 0 .22.45c.14.11.31.17.5.16a1.03 1.03 0 0 0 .62-.21l.1.28Zm-.83-1.53a.59.59 0 0 0-.45.16.59.59 0 0 0-.2.39h1.25a.6.6 0 0 0-.17-.4.59.59 0 0 0-.43-.15Zm1.47-.3h.33l.79 1.02.74-1.02h.32v2.06h-.36v-1.5l-.71.95h-.01l-.74-.95v1.5h-.36V19.2Zm2.86.14c.1-.05.2-.1.31-.13.12-.03.25-.05.37-.05a.73.73 0 0 1 .59.22c.13.18.2.4.18.62v1.26h-.34v-.27a.81.81 0 0 1-.65.3.64.64 0 0 1-.47-.17.64.64 0 0 1-.17-.47.63.63 0 0 1 .22-.48c.07-.05.16-.1.25-.12.1-.03.2-.05.3-.04h.27a.6.6 0 0 1 .25.1v-.26a.5.5 0 0 0-.07-.2.32.32 0 0 0-.13-.1.95.95 0 0 0-.59 0l-.25.1-.07-.3Zm.59 1.62c.11 0 .23-.02.32-.09.08-.05.15-.1.2-.17v-.26a.8.8 0 0 0-.45-.14h-.17a.51.51 0 0 0-.14.07.26.26 0 0 0-.1.1.33.33 0 0 0-.03.15.3.3 0 0 0 .1.24c.07.06.17.09.27.08m4.29-2.64a.63.63 0 0 1-.2.18c-.08.04-.17.06-.25.08l-.27.05c-.12.02-.22.05-.32.1-.1.04-.18.1-.24.18a1.12 1.12 0 0 0-.24.53c-.02.09-.04.19-.04.28a.7.7 0 0 1 .32-.34.9.9 0 0 1 .48-.14.94.94 0 0 1 .7.29c.09.1.15.2.19.32a1.19 1.19 0 0 1-.01.82.99.99 0 0 1-.55.57 1.08 1.08 0 0 1-.87 0 .98.98 0 0 1-.34-.26 1.1 1.1 0 0 1-.22-.4 1.7 1.7 0 0 1-.08-.54l.03-.47c.02-.16.05-.32.1-.48.06-.15.14-.28.24-.41a1 1 0 0 1 .4-.29c.1-.05.2-.08.32-.1l.25-.05a.9.9 0 0 0 .22-.06.45.45 0 0 0 .17-.14l.2.29Zm-1.54 1.78c0 .12.02.24.05.36a.67.67 0 0 0 .36.44.66.66 0 0 0 .76-.14.52.52 0 0 0 .14-.22.67.67 0 0 0 .05-.27.73.73 0 0 0-.17-.5.59.59 0 0 0-.48-.2.74.74 0 0 0-.27.05.82.82 0 0 0-.2.12.65.65 0 0 0-.24.36Zm2.28-.88h.36v.62h.34c.13 0 .26.02.39.06.1.03.18.09.25.15a.77.77 0 0 1 .17.49c0 .1-.02.19-.05.28a.6.6 0 0 1-.13.23.7.7 0 0 1-.27.16c-.13.05-.27.07-.4.07h-.66V19.2Zm.36.96v.75h.27c.13.02.27-.02.38-.09a.34.34 0 0 0 .11-.28.35.35 0 0 0-.11-.28.59.59 0 0 0-.38-.1h-.27Zm1.54-.96h.36v2.06h-.36V19.2Zm2.76 1.76c-.1.11-.2.2-.34.26a1.3 1.3 0 0 1-.89.01.92.92 0 0 1-.35-.22.95.95 0 0 1-.22-.34 1.18 1.18 0 0 1 0-.86 1 1 0 0 1 .2-.34 1 1 0 0 1 .75-.3c.15-.01.3 0 .45.05.14.04.26.1.36.2l-.17.3a.77.77 0 0 0-.28-.17.9.9 0 0 0-.3-.05.69.69 0 0 0-.5.2.59.59 0 0 0-.15.23.7.7 0 0 0-.06.3c0 .1.02.2.06.3.04.1.1.17.16.24.07.06.15.1.24.14.09.03.18.05.28.05a.8.8 0 0 0 .59-.27l.17.27Zm.19-1.76h1.86v.37h-.75v1.69h-.37v-1.7h-.74v-.36Zm2.26 0h.36v.24a.96.96 0 0 1 .7-.28c.13 0 .27.02.4.08.1.05.2.12.29.21.08.1.15.2.18.33a1.2 1.2 0 0 1 0 .86 1.06 1.06 0 0 1-.55.58 1.38 1.38 0 0 1-.75.05.8.8 0 0 1-.27-.1v1h-.36V19.2Zm.95.3a.68.68 0 0 0-.34.09.7.7 0 0 0-.25.2v1.01a.9.9 0 0 0 .54.16.7.7 0 0 0 .52-.21.59.59 0 0 0 .14-.24.8.8 0 0 0 .06-.3c0-.1-.02-.19-.04-.28a.6.6 0 0 0-.14-.23.48.48 0 0 0-.2-.14.71.71 0 0 0-.29-.06Zm1.57-.3h.37v.62h.34c.13 0 .27.02.4.06.09.03.17.09.24.15a.77.77 0 0 1 .17.49c0 .1-.01.19-.04.28a.53.53 0 0 1-.15.23.64.64 0 0 1-.25.16c-.14.05-.27.07-.41.07h-.66V19.2Zm.37.96v.75h.26a.6.6 0 0 0 .39-.09.34.34 0 0 0 .1-.28.34.34 0 0 0-.1-.28.59.59 0 0 0-.38-.1h-.27Zm1.54-.96h.36v2.06h-.36V19.2Zm2.1 1 .78 1.06h-.45l-.6-.84-.6.84h-.43l.77-1.05-.72-1h.44l.55.77.57-.78h.42l-.73 1ZM33.3 23.79h-1.12v1.71h-.36v-2.05h1.84v2.05h-.37v-1.7Zm2.42.03H35v.34a3.2 3.2 0 0 1-.11.7c-.03.16-.1.3-.18.42a.52.52 0 0 1-.24.2c-.1.03-.2.05-.3.05v-.35h.15a.4.4 0 0 0 .15-.16c.06-.1.1-.21.13-.33.05-.2.07-.39.08-.59l.03-.64h1.43v2.06h-.37l-.05-1.7Zm1.03-.22a1.28 1.28 0 0 1 .68-.19.72.72 0 0 1 .6.21c.12.18.18.4.17.62v1.26h-.34v-.26a.8.8 0 0 1-.25.2.8.8 0 0 1-.4.1.63.63 0 0 1-.46-.17.6.6 0 0 1-.18-.47c0-.1.02-.2.06-.28.04-.08.1-.15.17-.2a.7.7 0 0 1 .24-.13 1.15 1.15 0 0 1 .57-.01c.09.02.17.05.25.1v-.26a.54.54 0 0 0-.06-.2.38.38 0 0 0-.14-.14.52.52 0 0 0-.25-.04c-.1 0-.21 0-.31.04l-.26.1-.09-.29Zm.59 1.6c.11 0 .23-.02.33-.08.07-.05.14-.11.2-.18v-.26a.8.8 0 0 0-.46-.14.5.5 0 0 0-.16 0 .52.52 0 0 0-.14.06.34.34 0 0 0-.1.11.3.3 0 0 0-.04.15.3.3 0 0 0 .1.23c.07.07.17.1.27.1m1.23-1.74h1.87v.36h-.76v1.7h-.36v-1.7h-.75v-.36Zm3.93 1.83a.92.92 0 0 1-.36.2c-.14.05-.27.07-.41.07a1.2 1.2 0 0 1-.46-.08.9.9 0 0 1-.56-.55 1.19 1.19 0 0 1-.08-.44c0-.14.02-.28.06-.42a.95.95 0 0 1 .54-.57 1.18 1.18 0 0 1 .82-.01c.12.04.22.1.3.19a.93.93 0 0 1 .28.67v.25h-1.6a.63.63 0 0 0 .22.46c.15.1.32.16.5.16a1 1 0 0 0 .36-.06.8.8 0 0 0 .27-.16l.11.3Zm-.83-1.53a.66.66 0 0 0-.46.15.66.66 0 0 0-.2.4h1.25a.54.54 0 0 0-.18-.4.59.59 0 0 0-.41-.15Zm1.13-.3h.47l.7.99-.75 1.06h-.45l.8-1.06-.76-.99Zm1.26 0h.37v2.05h-.37v-2.05Zm.87.99.8 1.06h-.45l-.76-1.06.7-.99h.47l-.76.99Zm2.81.84a.8.8 0 0 1-.36.2c-.13.05-.27.07-.4.07a1.17 1.17 0 0 1-.8-.3 1 1 0 0 1-.23-.33 1.28 1.28 0 0 1 0-.86.95.95 0 0 1 .53-.57 1.18 1.18 0 0 1 .82-.01.86.86 0 0 1 .5.48c.06.12.09.25.08.38v.25h-1.6a.6.6 0 0 0 .21.46c.15.1.32.16.5.16a.95.95 0 0 0 .63-.21l.12.28Zm-.83-1.53a.64.64 0 0 0-.45.15.63.63 0 0 0-.2.4h1.25a.6.6 0 0 0-.17-.4.59.59 0 0 0-.43-.15Zm1.47 1.75v-2.05h.36v1.53l1.18-1.53h.37v2.06h-.37v-1.53l-1.18 1.53h-.36Zm.63-3.1c0 .24.13.36.35.36.22 0 .31-.12.33-.36h.34a.6.6 0 0 1-.04.26.59.59 0 0 1-.14.2.65.65 0 0 1-.49.18c-.1 0-.2-.02-.3-.05a.6.6 0 0 1-.35-.34.7.7 0 0 1-.04-.25h.34Z"/>
      <path fill="#874691" d="m8.02 16-4.16 2.4L0 25.13 15.76 16H8.02Z"/>
      <path fill="#DA1844" d="m19.92 9.12-4.16 2.4-3.87 6.72 15.75-9.12h-7.72Z"/>
      <path fill="#F9B229" d="M15.76 6.71 11.89 0v32l3.87-6.71V6.7Z"/>
      <path fill="#F07F1A" d="m11.9 0 3.86 6.71 4.16 2.41h7.72L11.9 0Z"/>
      <path fill="#72B22C" d="M11.9 13.76V32l3.86-6.71v-4.82l-3.87-6.71Z"/>
      <path fill="#00743E" d="m19.92 22.88-4.16 2.4L11.89 32l15.75-9.12h-7.72Z"/>
      <path fill="#5F5A94" d="M0 6.88v18.24l3.86-6.71v-4.82L0 6.88Z"/>
      <path fill="#0D90CD" d="M11.9 13.76 0 6.89l3.86 6.7 16.06 9.3h7.72L11.9 13.76Z"/>
      <path fill="#fff" d="M59 7.86v8.21h-2.87v-5.76h-2.77v5.76h-2.87v-8.2H59Zm-9.93 4.37c.04 2.36-1.88 4.08-4.6 4.08-2.58 0-4.75-1.56-4.75-5.37 0-3.24 2.06-5.9 5.1-5.95h4.25l-1.35 2.43h-2.6a2.6 2.6 0 0 0-2.65 2.24 4.35 4.35 0 0 1 2.94-1.05 3.73 3.73 0 0 1 3.68 3.63m-2.87.19a1.71 1.71 0 0 0-1.71-1.74 1.72 1.72 0 0 0-1.77 1.77 1.73 1.73 0 0 0 2.35 1.58 1.72 1.72 0 0 0 1.1-1.6m-8.69.83c-.68.41-1.46.63-2.26.63a1.95 1.95 0 0 1 0-3.9c.8 0 1.58.2 2.26.63l1.07-1.94a5.05 5.05 0 0 0-3.16-1.06c-2.81 0-4.74 2.29-4.74 4.32 0 2.36 2.14 4.35 4.7 4.36a5.04 5.04 0 0 0 3.2-1.07l-1.07-1.97Z"/>
    </g>
  </g>
  <defs>
    <clipPath id="a">
      <path fill="#fff" d="M0 0h66v32H0z"/>
    </clipPath>
  </defs>
</svg>
