<svg xmlns="http://www.w3.org/2000/svg" fill="none" viewBox="0 0 48 32">
  <path fill="#1434CB" d="M0 6.4C0 2.86 2.98 0 6.66 0h34.68A6.53 6.53 0 0 1 48 6.4v19.2c0 3.54-2.98 6.4-6.66 6.4H6.66A6.53 6.53 0 0 1 0 25.6V6.4Z"/>
  <path fill="#fff" d="M29.41 9.6c-2.8 0-5.3 1.45-5.3 4.14 0 3.08 4.44 3.3 4.44 4.84 0 .65-.75 1.24-2.03 1.24-1.8 0-3.16-.82-3.16-.82l-.58 2.71s1.56.69 3.63.69c3.07 0 5.48-1.52 5.48-4.26 0-3.25-4.46-3.46-4.46-4.9 0-.5.6-1.07 1.88-1.07 1.44 0 2.6.6 2.6.6l.57-2.62s-1.27-.55-3.07-.55Zm-25.66.2-.07.4s1.18.2 2.24.64c1.37.5 1.47.78 1.7 1.68l2.51 9.68h3.37l5.18-12.4h-3.36L12 18.23l-1.36-7.15A1.47 1.47 0 0 0 9.1 9.8H3.75Zm16.29 0L17.4 22.2h3.2l2.63-12.4h-3.2Zm17.86 0c-.77 0-1.18.41-1.48 1.13l-4.7 11.27h3.36l.65-1.88h4.1l.4 1.88h2.96L40.6 9.8h-2.7Zm.44 3.35 1 4.65h-2.68l1.68-4.65Z"/>
</svg>
