<?xml version="1.0" encoding="utf-8"?><svg xmlns="http://www.w3.org/2000/svg" xmlns:xlink="http://www.w3.org/1999/xlink"><symbol viewBox="0 0 18 18" id="angle" xmlns="http://www.w3.org/2000/svg"><path d="M8.6 12.77 2.98 7.15a.56.56 0 1 1 .8-.8L9 11.58l5.23-5.23a.56.56 0 0 1 .8.8L9.4 12.77a.56.56 0 0 1-.8 0Z"/></symbol><symbol viewBox="0 0 20 20" id="arrow" xmlns="http://www.w3.org/2000/svg"><path d="m19.82 10.42-5.63 5.4a.64.64 0 0 1-.88 0 .59.59 0 0 1-.19-.42c0-.16.07-.31.19-.42l4.56-4.38H.62a.64.64 0 0 1-.44-.18A.59.59 0 0 1 0 10a.6.6 0 0 1 .18-.42.64.64 0 0 1 .44-.18h17.25L13.3 5.02a.59.59 0 0 1-.19-.42c0-.16.07-.31.19-.42a.64.64 0 0 1 .88 0l5.63 5.4A.6.6 0 0 1 20 10a.58.58 0 0 1-.18.42Z"/></symbol><symbol viewBox="0 0 120 120" id="big-check" xmlns="http://www.w3.org/2000/svg"><path d="m42.9 102.37-.52-.88C34.48 88.05 13.5 59.51 13.3 59.22l-.3-.4 7.15-7.07 22.61 15.8C57 49.07 70.3 36.37 78.96 28.96c9.48-8.1 15.65-11.84 15.71-11.88l.14-.08h12.12l-1.16 1.03C76 44.55 43.72 100.93 43.4 101.5l-.5.88Z"/></symbol><symbol viewBox="0 0 14 14" id="check" xmlns="http://www.w3.org/2000/svg"><path d="m12.71 4.4-7 7a.66.66 0 0 1-.93 0L1.72 8.34a.66.66 0 1 1 .93-.93l2.6 2.6 6.54-6.54a.66.66 0 0 1 .93.93Z"/></symbol><symbol viewBox="0 0 48 48" id="check-o" xmlns="http://www.w3.org/2000/svg"><path d="M32.56 18.44a1.5 1.5 0 0 1 0 2.12l-10.5 10.5a1.5 1.5 0 0 1-2.12 0l-4.5-4.5a1.5 1.5 0 0 1 2.12-2.12L21 27.88l9.44-9.44a1.5 1.5 0 0 1 2.12 0ZM43.5 24a19.5 19.5 0 1 1-39 0 19.5 19.5 0 0 1 39 0Zm-3 0a16.5 16.5 0 1 0-33 0 16.5 16.5 0 0 0 33 0Z"/></symbol><symbol viewBox="0 0 24 24" id="cross" xmlns="http://www.w3.org/2000/svg"><path d="M19.28 18.22a.75.75 0 0 1-1.06 1.06L12 13.06l-6.22 6.22a.75.75 0 1 1-1.06-1.06L10.94 12 4.72 5.78a.75.75 0 1 1 1.06-1.06L12 10.94l6.22-6.22a.75.75 0 1 1 1.06 1.06L13.06 12l6.22 6.22Z"/></symbol><symbol viewBox="0 0 22 22" id="currency" xmlns="http://www.w3.org/2000/svg"><path d="M21 8a7 7 0 0 0-7-7H8a7 7 0 0 0-7 7v6a7 7 0 0 0 7 7h6a7 7 0 0 0 7-7V8Zm1 6a8 8 0 0 1-8 8H8a8 8 0 0 1-8-8V8a8 8 0 0 1 8-8h6a8 8 0 0 1 8 8v6Z"/><path d="M15.69 6.9H11.9v9.78h-1.8V6.9H6.3V5.32h9.38V6.9h.01Z"/></symbol><symbol viewBox="0 0 24 24" id="envelope" xmlns="http://www.w3.org/2000/svg"><path d="M21 4.5H3a.75.75 0 0 0-.75.75V18a1.5 1.5 0 0 0 1.5 1.5h16.5a1.5 1.5 0 0 0 1.5-1.5V5.25A.75.75 0 0 0 21 4.5Zm-9 7.98L4.93 6h14.14L12 12.48ZM9.25 12l-5.5 5.04V6.96L9.25 12Zm1.11 1.02 1.13 1.03a.75.75 0 0 0 1.01 0l1.13-1.03L19.07 18H4.93l5.43-4.98ZM14.75 12l5.5-5.05v10.1L14.75 12Z"/></symbol><symbol viewBox="0 0 120 120" id="error" xmlns="http://www.w3.org/2000/svg"><path d="M60 100a40 40 0 1 0 0-80 40 40 0 0 0 0 80Z"/><path d="m68.87 60 11.98-11.99a3.48 3.48 0 0 0 0-4.92l-3.94-3.94a3.48 3.48 0 0 0-4.92 0L60 51.13 48.01 39.15a3.49 3.49 0 0 0-4.92 0l-3.94 3.94a3.48 3.48 0 0 0 0 4.92L51.13 60 39.15 71.99a3.48 3.48 0 0 0 0 4.92l3.94 3.94a3.48 3.48 0 0 0 4.92 0L60 68.87l11.99 11.98a3.48 3.48 0 0 0 4.92 0l3.94-3.94a3.48 3.48 0 0 0 0-4.92L68.87 60Z"/></symbol><symbol viewBox="0 0 24 24" id="gift" xmlns="http://www.w3.org/2000/svg"><path d="M18.19 8.06h-2.47L15.8 8a2.08 2.08 0 0 0 .7-1.5 2.3 2.3 0 0 0-3.19-2.17 2.1 2.1 0 0 0-.68.5c-.26.3-.47.65-.63 1.02a3.86 3.86 0 0 0-.63-1.02 2.08 2.08 0 0 0-1.51-.7 2.3 2.3 0 0 0-2.17 3.2c.12.25.3.48.5.67l.09.07H5.8A1.13 1.13 0 0 0 4.7 9.2v2.25a1.13 1.13 0 0 0 1.12 1.12v4.5a1.13 1.13 0 0 0 1.13 1.13h4.22a.28.28 0 0 0 .28-.28v-6.47H5.8V9.19h5.63v2.25h1.12V9.19h5.63v2.25h-5.63v6.47a.28.28 0 0 0 .28.28h4.22a1.12 1.12 0 0 0 1.13-1.13v-4.5a1.12 1.12 0 0 0 1.12-1.12V9.19a1.12 1.12 0 0 0-1.12-1.13Zm-9.25-.91a.96.96 0 0 1-.31-.7 1.17 1.17 0 0 1 1.16-1.2h.04a.96.96 0 0 1 .7.32c.59.66.8 1.77.87 2.45a4.65 4.65 0 0 1-2.46-.87Zm6.12 0c-.67.59-1.78.8-2.46.87.08-.74.31-1.82.88-2.45a.96.96 0 0 1 .7-.32h.03a1.17 1.17 0 0 1 1.16 1.2.96.96 0 0 1-.31.7Z"/></symbol><symbol viewBox="0 0 24 24" id="gpt" xmlns="http://www.w3.org/2000/svg"><path d="m16.93 11.6-4.16-2.38 1.6-.88c.13-.07.26.04.37.1 1.22.7 2.45 1.35 3.64 2.08a3.45 3.45 0 0 1-.23 5.97c-.13.07-.25.16-.42.13-.16-.14-.1-.33-.1-.5-.01-1.13-.04-2.25 0-3.38.02-.55-.15-.92-.7-1.14ZM5.37 16.71a3.2 3.2 0 0 1-.34-2.13c.2-.07.32.06.45.13 1.04.59 2.1 1.16 3.13 1.78.4.24.73.24 1.12 0 1.25-.72 2.5-1.42 3.76-2.13.15-.09.29-.23.55-.17v1.64c0 .16-.16.23-.3.31-1.14.65-2.28 1.32-3.44 1.96-1.8 1-3.8.43-4.93-1.39Z"/><path d="M5.42 13.36a3.47 3.47 0 0 1-1.29-3.74C4.46 8.5 5.45 7.46 6.3 7.4c.12.14.07.31.07.47 0 1.19.02 2.37 0 3.55-.01.43.14.7.52.9 1.25.69 2.49 1.4 3.73 2.1.16.1.36.16.5.4-.48.33-.98.61-1.5.86-.12.05-.24-.03-.34-.1l-3.86-2.21ZM12 8.79 9.96 9.94V8.15c0-.12.13-.2.24-.25 1.26-.71 2.49-1.47 3.77-2.12a3.5 3.5 0 0 1 5.04 3.3c0 .11 0 .23-.08.34-.2.06-.34-.09-.49-.17-1.02-.57-2.04-1.15-3.05-1.74-.4-.23-.74-.25-1.14 0-.73.44-1.48.84-2.26 1.28Zm3.24 10.42c-1.48 1.07-3.6 1.05-4.44-.05.21-.24.5-.36.78-.51.92-.54 1.84-1.06 2.78-1.58a.81.81 0 0 0 .46-.8v-4.4c0-.16-.05-.33.11-.51.52.2.98.53 1.46.82.14.08.11.24.11.37 0 1.4.03 2.82 0 4.23a3.26 3.26 0 0 1-1.26 2.43Z"/><path d="M8.02 5.65c1.34-2.13 4.19-1.96 5.17-.82-.22.26-.53.37-.81.53-.9.52-1.79 1.05-2.7 1.55-.37.2-.51.45-.5.85v4.31c0 .18.04.36-.1.6-.51-.26-1.02-.54-1.5-.87-.12-.09-.08-.25-.08-.38V7.3c0-.58.22-1.1.52-1.64Z"/><path d="M12.09 14.28c-.77-.22-1.38-.69-2.04-1.07-.13-.07-.11-.23-.11-.36v-1.66c-.01-.26.09-.42.31-.54.49-.26.97-.54 1.45-.82.2-.12.38-.13.59 0l1.48.84c.22.11.29.28.28.5v1.67c.01.26-.1.4-.32.53-.54.29-1.07.6-1.64.9Z"/></symbol><symbol viewBox="0 0 48 48" id="heart" xmlns="http://www.w3.org/2000/svg"><path d="M33.38 7.5A11.5 11.5 0 0 0 24 11.98a11.52 11.52 0 0 0-9.38-4.48A11.64 11.64 0 0 0 3 19.13C3 32.24 22.46 42.86 23.29 43.3a1.5 1.5 0 0 0 1.42 0C25.54 42.87 45 32.25 45 19.12A11.64 11.64 0 0 0 33.37 7.5ZM24 40.27C20.58 38.28 6 29.2 6 19.13a8.64 8.64 0 0 1 8.63-8.62c3.64 0 6.7 1.94 7.98 5.06a1.5 1.5 0 0 0 2.78 0c1.28-3.12 4.34-5.06 7.98-5.06A8.64 8.64 0 0 1 42 19.13c0 10.05-14.58 19.15-18 21.14Z"/></symbol><symbol viewBox="0 0 12 12" id="info" xmlns="http://www.w3.org/2000/svg"><path d="M6 8.73a.55.55 0 1 0 0-1.1.55.55 0 0 0 0 1.1ZM5.45 7.1h1.1c0-.44.06-.52.51-.75.78-.39 1.12-.79 1.12-1.71 0-1.2-.93-1.91-2.18-1.91-1.2 0-2.18.97-2.18 2.18H4.9c0-.6.49-1.1 1.09-1.1.7 0 1.1.31 1.1.83 0 .43-.08.51-.53.74-.77.39-1.12.78-1.12 1.71Z"/><path fill-rule="evenodd" d="M0 6a6 6 0 1 0 12 0A6 6 0 0 0 0 6Zm10.9 0a4.9 4.9 0 1 1-9.8 0 4.9 4.9 0 0 1 9.8 0Z" clip-rule="evenodd"/></symbol><symbol viewBox="0 0 20 20" id="logout" xmlns="http://www.w3.org/2000/svg"><path d="M9.38 16.88a.62.62 0 0 1-.63.62h-5a.62.62 0 0 1-.63-.63V3.13a.62.62 0 0 1 .63-.62h5a.62.62 0 0 1 0 1.25H4.37v12.5h4.38a.62.62 0 0 1 .63.63Zm8.56-7.32-3.12-3.13a.63.63 0 0 0-.89.89L16 9.37H8.75a.62.62 0 0 0 0 1.26h7.24l-2.06 2.05a.63.63 0 0 0 .89.89l3.12-3.13a.63.63 0 0 0 0-.88Z"/></symbol><symbol viewBox="0 0 20 20" id="order" xmlns="http://www.w3.org/2000/svg"><path d="M16.88 3.13H3.13a1.25 1.25 0 0 0-1.25 1.25v11.25a1.25 1.25 0 0 0 1.25 1.24h13.75a1.25 1.25 0 0 0 1.25-1.25V4.38a1.25 1.25 0 0 0-1.25-1.25Zm0 1.25v1.25H3.13V4.38h13.75Zm0 11.25H3.13V6.87h13.75v8.75Zm-3.13-6.88a3.75 3.75 0 0 1-7.5 0 .62.62 0 0 1 1.25 0 2.5 2.5 0 0 0 5 0 .62.62 0 1 1 1.25 0Z"/></symbol><symbol viewBox="0 0 24 24" id="pen" xmlns="http://www.w3.org/2000/svg"><path fill-rule="evenodd" d="M15.73 3.84a2.93 2.93 0 0 0-3.89 1.42l-5.13 11a.61.61 0 0 0-.02.48L7.8 19.8a.6.6 0 0 0 .78.37l3.08-1.12a.61.61 0 0 0 .34-.32l5.14-11a2.94 2.94 0 0 0-1.42-3.9Zm-.44 4.98L11 17.99l-2.26.82-.82-2.25 4.28-9.18 3.08 1.44Zm-.08-3.86c.85.4 1.22 1.4.83 2.25l-.23.5-3.09-1.44.23-.5a1.7 1.7 0 0 1 2.26-.81Z" clip-rule="evenodd"/></symbol><symbol viewBox="0 0 24 24" id="plane" xmlns="http://www.w3.org/2000/svg"><path d="M21.95 2.19s2.22-.91 2.04 1.3c-.06.9-.62 4.08-1.05 7.53L21.46 21.2s-.12 1.5-1.23 1.75c-1.11.26-2.78-.9-3.09-1.17-.24-.2-4.62-3.11-6.16-4.54-.44-.4-.93-1.17.06-2.08l6.47-6.5c.74-.77 1.48-2.59-1.6-.38l-8.63 6.17s-1 .65-2.84.06l-4.01-1.3s-1.48-.97 1.05-1.95C7.65 8.22 15.23 5.11 21.95 2.2Z"/></symbol><symbol viewBox="0 0 18 18" id="plus" xmlns="http://www.w3.org/2000/svg"><path d="M16.03 9a.84.84 0 0 1-.84.84H9.84v5.35a.84.84 0 1 1-1.68 0V9.84H2.8a.84.84 0 0 1 0-1.68h5.35V2.8a.84.84 0 1 1 1.68 0v5.35h5.35a.84.84 0 0 1 .84.84Z"/></symbol><symbol viewBox="0 0 20 20" id="profile" xmlns="http://www.w3.org/2000/svg"><path d="M10 1.88a8.12 8.12 0 1 0 0 16.24 8.12 8.12 0 0 0 0-16.25ZM5.79 15.43a5 5 0 0 1 8.42 0 6.86 6.86 0 0 1-8.42 0ZM7.5 9.38a2.5 2.5 0 1 1 5 0 2.5 2.5 0 0 1-5 0Zm7.64 5.18a6.22 6.22 0 0 0-2.82-2.24 3.75 3.75 0 1 0-4.64 0 6.22 6.22 0 0 0-2.82 2.24 6.88 6.88 0 1 1 10.28 0Z"/></symbol><symbol viewBox="0 0 24 24" id="ps" xmlns="http://www.w3.org/2000/svg"><path d="M5.28 16.06c-1.34-.37-1.57-1.15-.96-1.6.46-.3.96-.53 1.48-.71l.06-.02 3.96-1.39v1.6l-2.84 1.02c-.5.19-.59.43-.17.57.55.13 1.14.1 1.68-.1h-.02l1.38-.47v1.43l-.28.05a9.03 9.03 0 0 1-4.34-.35l.06.02-.01-.05Zm8.38.17 4.46-1.58c.5-.17.59-.43.17-.56a2.99 2.99 0 0 0-1.69.09h.03l-2.99 1.03v-1.65l.17-.06c.66-.2 1.34-.35 2.02-.42h.05a9.03 9.03 0 0 1 3.9.47l-.05-.02c1.3.42 1.45 1.02 1.12 1.44-.32.3-.7.55-1.13.7h-.02l-6.06 2.16v-1.59l.02-.01ZM10.36 5v12.13l2.78.87V7.83c0-.48.21-.8.56-.69.45.13.54.57.54 1.04v4.07c1.73.82 3.09 0 3.09-2.18 0-2.24-.8-3.23-3.15-4.04-1.17-.4-2.38-.73-3.6-1L10.36 5Z"/></symbol><symbol viewBox="0 0 24 24" id="search" xmlns="http://www.w3.org/2000/svg"><path d="m21.53 20.47-4.7-4.7a8.26 8.26 0 1 0-1.05 1.07l4.69 4.7a.75.75 0 0 0 1.06-1.07ZM3.75 10.5a6.75 6.75 0 1 1 13.5 0 6.75 6.75 0 0 1-13.5 0Z"/></symbol><symbol viewBox="0 0 14 14" id="star" xmlns="http://www.w3.org/2000/svg"><path d="m7 2.33 1.44 2.88 3.23.47-2.34 2.24.55 3.16L7 9.58l-2.89 1.5.56-3.16-2.34-2.24 3.23-.47L7 2.33Z"/><path fill-rule="evenodd" d="m7 1.03 1.83 3.65 4.1.6-2.97 2.84.7 4.02L7 10.24l-3.66 1.9.7-4.02-2.97-2.85 4.1-.59L7 1.03Zm0 2.6L5.94 5.76l-2.34.33 1.7 1.63-.4 2.31L7 8.93l2.1 1.1-.4-2.32 1.7-1.62-2.34-.34L7 3.64Z" clip-rule="evenodd"/></symbol><symbol viewBox="0 0 24 24" id="star-empty" xmlns="http://www.w3.org/2000/svg"><path d="M12 2l3.1 6.3 7 1-5 4.9 1.2 7-6.3-3.3-6.3 3.3 1.2-7-5-4.9 7-1z"/></symbol><symbol viewBox="0 0 24 24" id="star-filled" xmlns="http://www.w3.org/2000/svg"><path d="M12 2l3.1 6.3 7 1-5 4.9 1.2 7-6.3-3.3-6.3 3.3 1.2-7-5-4.9 7-1z"/></symbol><symbol viewBox="0 0 24 24" id="steam" xmlns="http://www.w3.org/2000/svg"><path d="M16.5 4.5A4.5 4.5 0 0 0 12 8.88L9.26 12.8a3.36 3.36 0 0 0-2.54.54L3 11.88v4.04l2.33.92a3.38 3.38 0 0 0 6.6-.1l4.34-3.25.23.01a4.5 4.5 0 0 0 0-9Zm0 1.5a3 3 0 1 1 0 6 3 3 0 0 1 0-6Zm0 .75a2.25 2.25 0 1 0 0 4.5 2.25 2.25 0 0 0 0-4.5ZM8.63 13.5a2.63 2.63 0 1 1-2.4 3.7l1.7.67a1.86 1.86 0 0 0 2.44-1.05 1.88 1.88 0 0 0-1.06-2.44l-1.7-.67c.31-.14.65-.21 1.02-.21Z"/></symbol><symbol viewBox="0 0 48 48" id="support" xmlns="http://www.w3.org/2000/svg"><path d="M24 4.5a19.5 19.5 0 1 0 0 39 19.5 19.5 0 0 0 0-39Zm7.33 24.71a8.97 8.97 0 0 0 0-10.42l5.34-5.34a16.47 16.47 0 0 1 0 21.1l-5.34-5.34ZM18 24a6 6 0 1 1 12 0 6 6 0 0 1-12 0Zm16.55-12.68-5.34 5.35a8.97 8.97 0 0 0-10.42 0l-5.34-5.35a16.47 16.47 0 0 1 21.1 0Zm-23.22 2.13 5.34 5.34a8.97 8.97 0 0 0 0 10.42l-5.35 5.34a16.47 16.47 0 0 1 0-21.1Zm2.12 23.23 5.34-5.35a8.97 8.97 0 0 0 10.42 0l5.34 5.34a16.47 16.47 0 0 1-21.1 0Z"/></symbol><symbol viewBox="0 0 24 24" id="switcher" xmlns="http://www.w3.org/2000/svg"><path d="M11.03 15.97a.75.75 0 0 1 0 1.06l-3 3a.75.75 0 0 1-1.06 0l-3-3a.75.75 0 1 1 1.06-1.06l1.72 1.72V4.5a.75.75 0 1 1 1.5 0v13.19l1.72-1.72a.75.75 0 0 1 1.06 0Zm9-9-3-3a.75.75 0 0 0-1.06 0l-3 3a.75.75 0 0 0 1.06 1.06l1.72-1.72V19.5a.75.75 0 1 0 1.5 0V6.31l1.72 1.72a.75.75 0 1 0 1.06-1.06Z"/></symbol><symbol viewBox="0 0 24 24" id="user" xmlns="http://www.w3.org/2000/svg"><path d="M12 12a4 4 0 1 0 0-8 4 4 0 0 0 0 8Zm0 2c-2.67 0-8 1.34-8 4v2h16v-2c0-2.66-5.33-4-8-4Z"/></symbol><symbol viewBox="0 0 24 24" id="visa" xmlns="http://www.w3.org/2000/svg"><path d="M20.93 5H3.07C2.47 5 2 5.5 2 6.1v10.8c0 .6.48 1.1 1.07 1.1h17.86c.6 0 1.07-.5 1.07-1.1V6.1c0-.6-.48-1.1-1.07-1.1ZM5.97 14.2 4.71 9.51a5.85 5.85 0 0 0-1.5-.6l.02-.1h2.3c.3 0 .55.11.64.45l.5 2.48.15.75 1.4-3.68h1.5l-2.24 5.4h-1.5Zm4.86 0H9.4l.9-5.4h1.42l-.9 5.4Zm2.47.09a4.2 4.2 0 0 1-1.58-.29l.2-1.2.18.08c.47.2.77.28 1.34.28.4 0 .85-.17.85-.53 0-.23-.18-.4-.74-.67-.54-.26-1.25-.69-1.24-1.47 0-1.05 1-1.78 2.4-1.78.55 0 1 .12 1.28.23l-.2 1.17-.12-.06c-.34-.15-.7-.22-1.07-.21-.56 0-.81.24-.81.46 0 .26.3.42.8.67.82.39 1.2.86 1.19 1.47-.01 1.12-.98 1.85-2.48 1.85Zm6.17-.08-.18-.8-1.82-.01-.3.81h-1.5l2.12-4.95c.15-.35.4-.45.75-.45h1.1l1.15 5.4h-1.32Z"/><path d="m17.88 12.3.57-1.52.19-.51.1.46.32 1.56h-1.18Z"/></symbol><symbol viewBox="0 0 20 20" id="wallet" xmlns="http://www.w3.org/2000/svg"><path d="M16.88 5H4.38a.62.62 0 0 1 0-1.25H15a.62.62 0 1 0 0-1.25H4.37A1.88 1.88 0 0 0 2.5 4.38v10a1.87 1.87 0 0 0 1.88 1.87h12.5A1.25 1.25 0 0 0 18.13 15V6.25A1.25 1.25 0 0 0 16.88 5Zm0 10H4.38a.62.62 0 0 1-.63-.63V6.14c.2.07.41.11.63.11h12.5V15Zm-3.75-4.69a.94.94 0 1 1 1.87 0 .94.94 0 0 1-1.88 0Z"/></symbol></svg>