<svg xmlns="http://www.w3.org/2000/svg" fill="none" viewBox="0 0 24 24">
  <path fill="#15151F" d="M18.19 8.06h-2.47L15.8 8a2.08 2.08 0 0 0 .7-1.5 2.3 2.3 0 0 0-3.19-2.17 2.1 2.1 0 0 0-.68.5c-.26.3-.47.65-.63 1.02a3.86 3.86 0 0 0-.63-1.02 2.08 2.08 0 0 0-1.51-.7 2.3 2.3 0 0 0-2.17 3.2c.12.25.3.48.5.67l.09.07H5.8A1.13 1.13 0 0 0 4.7 9.2v2.25a1.13 1.13 0 0 0 1.12 1.12v4.5a1.13 1.13 0 0 0 1.13 1.13h4.22a.28.28 0 0 0 .28-.28v-6.47H5.8V9.19h5.63v2.25h1.12V9.19h5.63v2.25h-5.63v6.47a.28.28 0 0 0 .28.28h4.22a1.12 1.12 0 0 0 1.13-1.13v-4.5a1.12 1.12 0 0 0 1.12-1.12V9.19a1.12 1.12 0 0 0-1.12-1.13Zm-9.25-.91a.96.96 0 0 1-.31-.7 1.17 1.17 0 0 1 1.16-1.2h.04a.96.96 0 0 1 .7.32c.59.66.8 1.77.87 2.45a4.65 4.65 0 0 1-2.46-.87Zm6.12 0c-.67.59-1.78.8-2.46.87.08-.74.31-1.82.88-2.45a.96.96 0 0 1 .7-.32h.03a1.17 1.17 0 0 1 1.16 1.2.96.96 0 0 1-.31.7Z"/>
</svg>
