
<svg xmlns="http://www.w3.org/2000/svg" fill="none" viewBox="0 0 48 48">
  <path fill="#B2EE00" d="M24 4.5a19.5 19.5 0 1 0 0 39 19.5 19.5 0 0 0 0-39Zm7.33 24.71a8.97 8.97 0 0 0 0-10.42l5.34-5.34a16.47 16.47 0 0 1 0 21.1l-5.34-5.34ZM18 24a6 6 0 1 1 12 0 6 6 0 0 1-12 0Zm16.55-12.68-5.34 5.35a8.97 8.97 0 0 0-10.42 0l-5.34-5.35a16.47 16.47 0 0 1 21.1 0Zm-23.22 2.13 5.34 5.34a8.97 8.97 0 0 0 0 10.42l-5.35 5.34a16.47 16.47 0 0 1 0-21.1Zm2.12 23.23 5.34-5.35a8.97 8.97 0 0 0 10.42 0l5.34 5.34a16.47 16.47 0 0 1-21.1 0Z"/>
</svg>